HIERARCHY
ROOT SpineBase
{
  OFFSET 0.000000 0.000000 0.000000
  CHANNELS 6 Xposition Yposition Zposition Zrotation Xrotation Yrotation
  JOINT SpineMid
  {
    OFFSET 0.000000 27.466481 0.000000
    CHANNELS 3 Zrotation Xrotation Yrotation
    JOINT SpineShoulder
    {
      OFFSET 0.071964 20.457993 -0.701477
      CHANNELS 3 Zrotation Xrotation Yrotation
      JOINT Neck
      {
        OFFSET 0.031313 6.787224 -0.531945
        CHANNELS 3 Zrotation Xrotation Yrotation
        JOINT Head
        {
          OFFSET 2.101629 12.892632 -0.534235
          CHANNELS 3 Zrotation Xrotation Yrotation
          End Site
          {
            OFFSET 0 0 0
          }
        }
      }
      JOINT ShoulderLeft
      {
        OFFSET -12.695761 -1.702378 -8.470219
        CHANNELS 3 Zrotation Xrotation Yrotation
        JOINT ElbowLeft
        {
          OFFSET -1.795956 -19.527710 -4.790436
          CHANNELS 3 Zrotation Xrotation Yrotation
          JOINT WristLeft
          {
            OFFSET 8.212053 -17.119363 -2.554265
            CHANNELS 3 Zrotation Xrotation Yrotation
            JOINT HandLeft
            {
              OFFSET 3.705866 -5.045861 2.532750
              CHANNELS 3 Zrotation Xrotation Yrotation
              JOINT HandTipLeft
              {
                OFFSET 4.782349 -6.491429 -1.675158
                CHANNELS 3 Zrotation Xrotation Yrotation
                End Site
                {
                  OFFSET 0 0 0
                }
              }
              JOINT ThumbLeft
              {
                OFFSET -5.991248 -2.753301 -0.093294
                CHANNELS 3 Zrotation Xrotation Yrotation
                End Site
                {
                  OFFSET 0 0 0
                }
              }
            }
          }
        }
      }
      JOINT ShoulderRight
      {
        OFFSET 14.347705 -3.375371 8.853305
        CHANNELS 3 Zrotation Xrotation Yrotation
        JOINT ElbowRight
        {
          OFFSET 3.263552 -25.563209 0.783256
          CHANNELS 3 Zrotation Xrotation Yrotation
          JOINT WristRight
          {
            OFFSET 2.384147 -18.412324 -5.028034
            CHANNELS 3 Zrotation Xrotation Yrotation
            JOINT HandRight
            {
              OFFSET 0.499778 -2.009466 -1.180242
              CHANNELS 3 Zrotation Xrotation Yrotation
              JOINT HandTipRight
              {
                OFFSET 1.049798 -2.038916 -3.371422
                CHANNELS 3 Zrotation Xrotation Yrotation
                End Site
                {
                  OFFSET 0 0 0
                }
              }
              JOINT ThumbRight
              {
                OFFSET -2.095453 -0.623001 -2.007825
                CHANNELS 3 Zrotation Xrotation Yrotation
                End Site
                {
                  OFFSET 0 0 0
                }
              }
            }
          }
        }
      }
    }
  }
  JOINT HipLeft
  {
    OFFSET -5.557440 0.910921 -6.578720
    CHANNELS 3 Zrotation Xrotation Yrotation
    JOINT KneeLeft
    {
      OFFSET -3.116991 -40.184610 5.185250
      CHANNELS 3 Zrotation Xrotation Yrotation
      JOINT AnkleLeft
      {
        OFFSET -6.748610 -28.788211 -0.502976
        CHANNELS 3 Zrotation Xrotation Yrotation
        JOINT FootLeft
        {
          OFFSET 1.130512 -7.103474 -2.835987
          CHANNELS 3 Zrotation Xrotation Yrotation
          End Site
          {
            OFFSET 0 0 0
          }
        }
      }
    }
  }
  JOINT HipRight
  {
    OFFSET 5.371334 0.603440 0.227643
    CHANNELS 3 Zrotation Xrotation Yrotation
    JOINT KneeRight
    {
      OFFSET -2.182597 -41.188491 10.299851
      CHANNELS 3 Zrotation Xrotation Yrotation
      JOINT AnkleRight
      {
        OFFSET 0.551856 -27.827806 2.131695
        CHANNELS 3 Zrotation Xrotation Yrotation
        JOINT FootRight
        {
          OFFSET 4.695372 -6.408707 -1.817973
          CHANNELS 3 Zrotation Xrotation Yrotation
          End Site
          {
            OFFSET 0 0 0
          }
        }
      }
    }
  }
}
MOTION
Frames: 15
Frame Time: 0.033333
17.273860 91.681803 351.671268 -26.554531 10.974710 36.229566 0.292840 0.008046 -34.522127 0.463698 0.821455 -0.925436 23.190778 8.755150 1.266698 0.000000 0.000000 0.000000 176.519595 -32.756559 99.841112 161.648958 -40.060821 157.803406 -43.700640 -36.008964 -106.510133 -11.445718 -11.701442 36.117246 0.000000 0.000000 0.000000 0.000000 0.000000 0.000000 89.419261 -6.595368 16.528094 -30.161011 1.599356 -8.893136 -17.447573 50.607223 3.079557 -54.969614 -33.515662 14.270704 0.000000 0.000000 0.000000 0.000000 0.000000 0.000000 20.665424 2.017984 -32.539848 5.152104 -16.704022 1.837605 18.487460 17.507533 -0.781542 0.000000 0.000000 0.000000 14.417997 -19.955213 -31.932585 4.937662 1.422017 1.265137 -32.106034 29.182092 44.054638 0.000000 0.000000 0.000000
15.268343 87.581919 351.387371 -24.597270 6.149723 31.623048 -0.203428 0.076714 -31.186227 0.195384 0.261068 -1.038422 15.672604 4.263861 1.085727 0.000000 0.000000 0.000000 166.470982 -35.593040 67.889375 168.701508 14.940001 124.737247 -19.350661 -8.960392 -17.254012 -22.966225 -18.602590 -16.527658 0.000000 0.000000 0.000000 0.000000 0.000000 0.000000 105.820620 -14.213924 19.293332 2.484494 -15.002848 -19.394269 2.524172 10.465045 -40.775548 -78.195471 22.574628 7.443864 0.000000 0.000000 0.000000 0.000000 0.000000 0.000000 22.836795 7.915595 -30.060391 4.654389 -17.238432 1.742035 15.253406 22.984726 0.429297 0.000000 0.000000 0.000000 15.977484 -15.621618 -28.926961 5.286999 3.480013 1.004347 -47.675231 26.674130 55.528102 0.000000 0.000000 0.000000
13.262438 83.875418 351.174839 -22.983899 1.665078 27.063282 -0.273375 0.009139 -27.564807 -0.268552 -0.307866 -1.127834 8.369535 1.527390 1.088632 0.000000 0.000000 0.000000 153.949691 -37.356261 41.329031 -170.492565 30.683294 97.430059 -16.096615 -0.677902 -1.131723 -17.203986 -22.209524 -22.362173 0.000000 0.000000 0.000000 0.000000 0.000000 0.000000 113.610936 -17.222789 18.376377 3.911349 -24.375111 -15.944746 -7.001452 14.253258 -43.934794 -36.004452 0.221277 -31.501900 0.000000 0.000000 0.000000 0.000000 0.000000 0.000000 24.446640 13.723208 -27.638341 4.427380 -17.917397 1.771090 11.181236 25.754595 1.970818 0.000000 0.000000 0.000000 17.191575 -11.473111 -25.824158 4.122431 5.646241 0.688409 -56.517661 23.496308 62.896278 0.000000 0.000000 0.000000
11.645583 81.027609 351.135486 -21.888167 -1.504889 22.948156 -0.944927 -0.156772 -24.109461 -0.291731 -0.618774 -1.148113 2.160718 0.849949 1.358404 0.000000 0.000000 0.000000 143.898414 -37.400305 24.088849 -153.203757 34.054238 78.937256 -11.765152 0.289432 6.107071 -6.847234 -25.499615 -21.222041 0.000000 0.000000 0.000000 0.000000 0.000000 0.000000 115.183797 -19.297993 16.236873 3.686794 -25.558258 -15.609496 -3.503458 15.363946 -52.114340 -35.904222 -16.787482 -30.205349 0.000000 0.000000 0.000000 0.000000 0.000000 0.000000 24.969986 17.974306 -25.094423 4.407693 -17.809599 1.766120 6.760798 25.226348 3.689849 0.000000 0.000000 0.000000 17.921779 -7.968424 -22.796294 4.523734 6.786871 0.536765 -61.839465 21.527359 66.285766 0.000000 0.000000 0.000000
10.856144 79.598921 351.311811 -22.623778 -2.356836 20.076383 -0.632865 -0.099769 -21.394180 -0.292537 -0.634793 -1.172877 0.129888 1.051574 1.478064 0.000000 0.000000 0.000000 140.324197 -35.965869 17.067434 -139.360591 34.196132 66.224319 -6.844083 -0.003141 11.729334 8.500978 -31.544929 -19.092424 0.000000 0.000000 0.000000 0.000000 0.000000 0.000000 114.519485 -18.433682 14.463526 3.188900 -26.196712 -14.391815 3.086633 14.403560 -59.382351 -37.806096 -25.492407 -27.514583 0.000000 0.000000 0.000000 0.000000 0.000000 0.000000 25.008354 19.284555 -22.542079 5.208859 -16.993404 1.916590 8.370083 22.656920 2.356232 0.000000 0.000000 0.000000 19.037288 -6.051782 -20.365021 7.276150 5.791049 0.698385 -65.500148 21.571214 67.613888 0.000000 0.000000 0.000000
11.386368 80.104201 351.810627 -25.717309 -1.014109 17.902600 -0.498363 -0.286257 -19.133553 -0.156735 -0.452480 -1.279233 0.325603 2.440510 1.493553 0.000000 0.000000 0.000000 142.545069 -36.750506 22.102237 -133.475716 35.289900 65.323536 6.033812 -6.605959 17.530409 19.129988 -32.589706 -20.370518 0.000000 0.000000 0.000000 0.000000 0.000000 0.000000 111.589890 -16.551044 13.171179 0.827305 -26.259426 -12.081415 12.881784 13.087036 -65.673599 -38.581632 -27.348746 -26.480571 0.000000 0.000000 0.000000 0.000000 0.000000 0.000000 25.230945 17.667474 -19.457933 5.807375 -15.388446 1.864428 12.777027 17.834519 0.471138 0.000000 0.000000 0.000000 21.805950 -7.517155 -17.609664 7.321441 6.712821 0.676317 -62.297441 24.163102 66.779752 0.000000 0.000000 0.000000
10.841797 79.182465 352.027220 -27.318229 -1.751506 14.945858 -0.444690 -0.405849 -16.448041 -0.144732 -0.439148 -1.349483 -0.080332 2.343211 1.712254 0.000000 0.000000 0.000000 136.762400 -35.945629 16.131683 -119.917517 35.387783 56.179933 18.349976 -13.113524 22.082752 12.971507 -30.220272 -28.143821 0.000000 0.000000 0.000000 0.000000 0.000000 0.000000 115.220632 -18.680658 14.273109 -18.185004 -14.885679 -10.923765 21.915825 -2.621709 -57.655762 -52.003001 3.563030 -24.515319 0.000000 0.000000 0.000000 0.000000 0.000000 0.000000 26.456473 18.479396 -16.732048 4.832582 -14.276680 1.374576 22.367228 11.421904 -3.287529 0.000000 0.000000 0.000000 23.798195 -6.492355 -14.991355 8.785508 7.714278 0.590054 -63.665627 23.473091 65.595654 0.000000 0.000000 0.000000
10.410596 78.364288 352.307204 -28.803744 -2.640432 12.490619 -0.456255 -0.592074 -14.343536 -0.082291 -0.503384 -1.432588 1.315018 3.160780 2.024257 0.000000 0.000000 0.000000 130.000603 -35.328168 11.163697 -110.255193 35.944519 51.316317 28.319017 -21.216124 24.513635 7.430434 -24.310795 -32.284593 0.000000 0.000000 0.000000 0.000000 0.000000 0.000000 114.374039 -21.284168 14.304603 -24.373422 -8.762784 -9.430879 21.288313 -21.767505 -45.386421 -81.937526 39.873642 -0.266277 0.000000 0.000000 0.000000 0.000000 0.000000 0.000000 27.430856 19.446820 -14.654951 4.502300 -12.949303 1.056878 23.921190 10.624331 -3.403845 0.000000 0.000000 0.000000 25.496660 -4.881356 -13.075280 11.466405 8.153119 0.605463 -64.928209 19.797279 58.726834 0.000000 0.000000 0.000000
10.161928 77.836571 352.503955 -29.832890 -3.311308 11.836718 -0.429947 -0.815036 -13.987915 0.020907 -0.551573 -1.486472 2.086207 2.354309 2.129666 0.000000 0.000000 0.000000 122.941713 -34.488481 7.383328 -104.160191 36.758835 49.497396 33.240473 -26.950325 24.795455 3.706639 -20.543786 -33.153576 0.000000 0.000000 0.000000 0.000000 0.000000 0.000000 111.170778 -22.831379 13.288916 -27.707534 -5.632707 -7.376891 14.711567 -42.443856 -27.555518 -58.150284 36.850295 -16.441945 0.000000 0.000000 0.000000 0.000000 0.000000 0.000000 27.952529 20.503189 -14.324398 5.925898 -13.346309 1.551815 18.102767 7.863405 -1.583830 0.000000 0.000000 0.000000 26.473174 -4.048383 -12.799282 15.535916 8.462604 0.614707 -72.471326 14.293227 54.324729 0.000000 0.000000 0.000000
10.126023 77.269543 352.760331 -30.209399 -4.140639 14.480868 -0.415028 -0.924857 -16.909121 0.305568 -0.574611 -1.494111 2.449738 2.263177 2.246487 0.000000 0.000000 0.000000 116.284791 -33.924094 4.854399 -102.534485 38.740913 51.315864 36.426251 -38.297505 22.981863 -0.489670 -15.206187 -31.617597 0.000000 0.000000 0.000000 0.000000 0.000000 0.000000 105.222002 -23.444335 11.200851 -26.083122 -10.115695 -5.261782 4.807832 -32.214681 -24.484698 -44.608413 27.131392 -13.852496 0.000000 0.000000 0.000000 0.000000 0.000000 0.000000 29.527351 19.261130 -17.123252 5.155333 -10.969546 0.871623 8.551171 16.127081 3.616555 0.000000 0.000000 0.000000 26.756449 -5.038922 -15.498288 17.815841 9.900917 0.312735 -73.856549 11.922890 48.757103 0.000000 0.000000 0.000000
10.223653 76.586616 353.016677 -30.253879 -5.151100 18.052753 -0.764221 -0.974114 -20.797603 0.368965 -0.672427 -1.532496 3.438882 2.645297 2.416196 0.000000 0.000000 0.000000 111.415861 -34.127693 3.316247 -100.627927 39.895488 52.272149 23.784227 -35.396532 12.868626 0.830319 -23.279538 -30.766048 0.000000 0.000000 0.000000 0.000000 0.000000 0.000000 96.410744 -23.414286 7.920656 -19.033106 -10.065295 -7.227289 0.871760 -25.594514 -20.809430 -31.542986 10.669026 -26.362183 0.000000 0.000000 0.000000 0.000000 0.000000 0.000000 30.836469 17.959696 -20.847007 4.722325 -9.720285 0.540851 12.729484 15.260588 2.440442 0.000000 0.000000 0.000000 26.762756 -6.986095 -19.012765 17.564629 12.549257 -0.337464 -62.080102 11.548381 36.769645 0.000000 0.000000 0.000000
10.261122 75.830107 353.259559 -30.023917 -6.172348 16.406927 -0.782107 -0.955331 -19.388177 0.477915 -0.773788 -1.546976 4.125681 2.858235 2.509257 0.000000 0.000000 0.000000 108.572952 -35.522538 3.641542 -103.560568 40.726374 56.503062 15.935482 -26.928129 8.672978 -1.439286 -32.368627 -32.575563 0.000000 0.000000 0.000000 0.000000 0.000000 0.000000 83.660236 -22.423097 4.187241 -6.259639 -15.522590 -9.772459 -2.798614 -22.945390 -18.643543 -30.675605 0.320962 -24.384085 0.000000 0.000000 0.000000 0.000000 0.000000 0.000000 30.500020 18.815109 -19.780252 4.551407 -8.119749 0.251155 16.015473 19.828748 1.499147 0.000000 0.000000 0.000000 27.423722 -6.214390 -17.763046 14.788481 14.953804 -0.740660 -48.041952 9.435561 26.770352 0.000000 0.000000 0.000000
10.102298 75.136435 353.291371 -29.703265 -6.844378 14.437591 -0.685992 -1.038733 -17.569335 0.585956 -0.809094 -1.533432 1.911308 1.641609 2.624155 0.000000 0.000000 0.000000 104.994726 -35.202705 2.395336 -104.383823 39.122303 57.889260 10.535015 -20.526731 4.825995 -0.356279 -39.301524 -33.912552 0.000000 0.000000 0.000000 0.000000 0.000000 0.000000 71.391023 -19.742032 1.037389 6.977384 -26.825530 -10.237198 -5.819851 -23.290912 -17.628517 -34.126417 -0.198567 -16.175100 0.000000 0.000000 0.000000 0.000000 0.000000 0.000000 29.952199 19.512567 -18.227637 4.842099 -6.877592 0.125022 12.401471 25.784244 3.135007 0.000000 0.000000 0.000000 28.141389 -5.881168 -15.995376 9.844703 17.745314 -0.929402 -36.563043 8.007674 22.940564 0.000000 0.000000 0.000000
10.205133 74.269899 353.627296 -28.988587 -7.973273 8.700982 -0.521644 -0.592713 -11.902147 0.750535 -0.753792 -1.481911 0.035475 0.361681 2.661952 0.000000 0.000000 0.000000 107.279835 -37.473155 4.458143 -113.565794 34.898809 63.602193 9.977427 -16.030711 3.346606 -3.147236 -44.106130 -36.993967 0.000000 0.000000 0.000000 0.000000 0.000000 0.000000 60.320615 -17.399322 -0.940246 18.548775 -38.113043 -9.061314 -6.986389 -26.413740 -18.170003 -39.746485 6.358784 -12.481721 0.000000 0.000000 0.000000 0.000000 0.000000 0.000000 27.699996 22.452069 -13.301542 5.224804 -5.438637 -0.023954 2.840487 31.265346 8.152856 0.000000 0.000000 0.000000 28.433343 -1.827059 -11.347024 7.281657 18.494913 -0.732591 -33.439035 10.536799 26.112794 0.000000 0.000000 0.000000
10.588588 73.309021 354.337827 -27.705809 -9.487031 2.968105 -0.620210 0.496982 -6.093087 0.969369 -0.727005 -1.419687 -3.099000 -1.606882 2.626767 0.000000 0.000000 0.000000 105.299492 -37.141688 3.696385 -110.697700 32.789230 60.377397 3.794003 -11.623572 -1.240684 3.724422 -46.163116 -33.919202 0.000000 0.000000 0.000000 0.000000 0.000000 0.000000 52.249040 -15.537994 -1.923924 25.955750 -47.351113 -6.532296 -10.360475 -25.212404 -13.677138 -40.147135 14.549943 -15.663485 0.000000 0.000000 0.000000 0.000000 0.000000 0.000000 24.172493 26.579961 -8.188772 6.541211 -4.980108 0.161931 -23.093799 30.650984 21.364648 0.000000 0.000000 0.000000 27.083859 3.934540 -7.016873 6.120597 17.412360 -0.228217 -38.104385 15.863871 35.757755 0.000000 0.000000 0.000000
